<mxfile host="app.diagrams.net" agent="Mozilla/5.0 (Windows NT 10.0; Win64; x64) AppleWebKit/537.36 (KHTML, like Gecko) Chrome/135.0.0.0 Safari/537.36" version="27.0.1">
  <diagram name="第 1 页" id="dTVFixLPCWqq3Uhtt8Iw">
    <mxGraphModel dx="1426" dy="811" grid="1" gridSize="10" guides="1" tooltips="1" connect="1" arrows="1" fold="1" page="1" pageScale="1" pageWidth="827" pageHeight="1169" math="0" shadow="0">
      <root>
        <mxCell id="0" />
        <mxCell id="1" parent="0" />
        <mxCell id="RwlgTqlIwdwXNtscQH5a-1" value="&lt;font style=&quot;color: rgb(35, 47, 61);&quot;&gt;&lt;b style=&quot;&quot;&gt;Fidelity Mananged Network (FMN)&lt;/b&gt;&lt;/font&gt;" style="points=[[0,0],[0.25,0],[0.5,0],[0.75,0],[1,0],[1,0.25],[1,0.5],[1,0.75],[1,1],[0.75,1],[0.5,1],[0.25,1],[0,1],[0,0.75],[0,0.5],[0,0.25]];outlineConnect=0;html=1;whiteSpace=wrap;fontSize=12;fontStyle=0;container=1;pointerEvents=0;collapsible=0;recursiveResize=0;shape=mxgraph.aws4.group;grIcon=mxgraph.aws4.group_corporate_data_center;fillColor=none;verticalAlign=top;align=left;spacingLeft=30;dashed=0;sketch=1;curveFitting=1;jiggle=2;strokeColor=#232F3D;" parent="1" vertex="1">
          <mxGeometry x="200" y="120" width="160" height="580" as="geometry" />
        </mxCell>
        <mxCell id="RwlgTqlIwdwXNtscQH5a-16" value="&lt;font style=&quot;color: rgb(153, 153, 153);&quot;&gt;&lt;b&gt;Servers&lt;/b&gt;&lt;/font&gt;" style="sketch=0;outlineConnect=0;fontColor=#232F3E;gradientColor=none;fillColor=#232F3D;strokeColor=none;verticalLabelPosition=bottom;verticalAlign=top;align=center;html=1;fontSize=12;fontStyle=0;aspect=fixed;pointerEvents=1;shape=mxgraph.aws4.servers;strokeWidth=1;" parent="RwlgTqlIwdwXNtscQH5a-1" vertex="1">
          <mxGeometry x="40" y="400" width="80" height="80" as="geometry" />
        </mxCell>
        <mxCell id="RwlgTqlIwdwXNtscQH5a-19" value="&lt;font style=&quot;color: rgb(153, 153, 153);&quot;&gt;&lt;b&gt;VDI&lt;/b&gt;&lt;/font&gt;" style="sketch=1;verticalLabelPosition=bottom;sketch=0;aspect=fixed;html=1;verticalAlign=top;strokeColor=none;fillColor=#232F3D;align=center;outlineConnect=0;pointerEvents=1;shape=mxgraph.citrix2.desktop;curveFitting=1;jiggle=2;" parent="RwlgTqlIwdwXNtscQH5a-1" vertex="1">
          <mxGeometry x="40" y="240" width="80" height="60" as="geometry" />
        </mxCell>
        <mxCell id="RwlgTqlIwdwXNtscQH5a-23" value="&lt;font style=&quot;color: rgb(153, 153, 153);&quot;&gt;&lt;b&gt;Laptop&lt;/b&gt;&lt;/font&gt;" style="sketch=0;pointerEvents=1;shadow=0;dashed=0;html=1;strokeColor=none;fillColor=#232F3D;aspect=fixed;labelPosition=center;verticalLabelPosition=bottom;verticalAlign=top;align=center;outlineConnect=0;shape=mxgraph.vvd.laptop;" parent="RwlgTqlIwdwXNtscQH5a-1" vertex="1">
          <mxGeometry x="40" y="80" width="80" height="60" as="geometry" />
        </mxCell>
        <mxCell id="RwlgTqlIwdwXNtscQH5a-2" value="&lt;b&gt;&lt;font style=&quot;color: rgb(0, 164, 166);&quot;&gt;AWS Singapore&lt;/font&gt;&lt;/b&gt;" style="points=[[0,0],[0.25,0],[0.5,0],[0.75,0],[1,0],[1,0.25],[1,0.5],[1,0.75],[1,1],[0.75,1],[0.5,1],[0.25,1],[0,1],[0,0.75],[0,0.5],[0,0.25]];outlineConnect=0;html=1;whiteSpace=wrap;fontSize=12;fontStyle=0;container=1;pointerEvents=0;collapsible=0;recursiveResize=0;shape=mxgraph.aws4.group;grIcon=mxgraph.aws4.group_region;strokeColor=#00A4A6;fillColor=none;verticalAlign=top;align=left;spacingLeft=30;dashed=1;sketch=1;curveFitting=1;jiggle=2;" parent="1" vertex="1">
          <mxGeometry x="552" y="120" width="508" height="590" as="geometry" />
        </mxCell>
        <mxCell id="RwlgTqlIwdwXNtscQH5a-26" value="&lt;b&gt;&lt;font style=&quot;color: rgb(122, 161, 22);&quot;&gt;VPC&lt;/font&gt;&lt;/b&gt;" style="points=[[0,0],[0.25,0],[0.5,0],[0.75,0],[1,0],[1,0.25],[1,0.5],[1,0.75],[1,1],[0.75,1],[0.5,1],[0.25,1],[0,1],[0,0.75],[0,0.5],[0,0.25]];outlineConnect=0;html=1;whiteSpace=wrap;fontSize=12;fontStyle=0;container=1;pointerEvents=0;collapsible=0;recursiveResize=0;shape=mxgraph.aws4.group;grIcon=mxgraph.aws4.group_vpc2;strokeColor=#7AA116;fillColor=#F2F6E8;verticalAlign=top;align=left;spacingLeft=30;dashed=0;sketch=1;curveFitting=1;jiggle=2;" parent="RwlgTqlIwdwXNtscQH5a-2" vertex="1">
          <mxGeometry x="10" y="210" width="490" height="370" as="geometry" />
        </mxCell>
        <mxCell id="RwlgTqlIwdwXNtscQH5a-38" value="&lt;font style=&quot;color: rgb(140, 79, 255);&quot;&gt;&lt;b style=&quot;&quot;&gt;ALB&lt;/b&gt;&lt;/font&gt;" style="sketch=0;outlineConnect=0;fontColor=#232F3E;gradientColor=none;fillColor=#8C4FFF;strokeColor=none;dashed=0;verticalLabelPosition=bottom;verticalAlign=top;align=center;html=1;fontSize=12;fontStyle=0;aspect=fixed;pointerEvents=1;shape=mxgraph.aws4.application_load_balancer;" parent="RwlgTqlIwdwXNtscQH5a-26" vertex="1">
          <mxGeometry x="70" y="230" width="80" height="80" as="geometry" />
        </mxCell>
        <mxCell id="RwlgTqlIwdwXNtscQH5a-40" value="&lt;font style=&quot;color: rgb(237, 113, 0);&quot;&gt;&lt;b style=&quot;&quot;&gt;Front-End Service&lt;/b&gt;&lt;/font&gt;" style="sketch=0;outlineConnect=0;fontColor=#232F3E;gradientColor=none;fillColor=#ED7100;strokeColor=none;dashed=0;verticalLabelPosition=bottom;verticalAlign=top;align=center;html=1;fontSize=12;fontStyle=0;aspect=fixed;pointerEvents=1;shape=mxgraph.aws4.ecs_service;" parent="RwlgTqlIwdwXNtscQH5a-26" vertex="1">
          <mxGeometry x="260" y="230" width="70" height="80" as="geometry" />
        </mxCell>
        <mxCell id="RwlgTqlIwdwXNtscQH5a-42" value="&lt;font style=&quot;color: rgb(236, 166, 94);&quot;&gt;&lt;b style=&quot;&quot;&gt;Nginx Service&lt;/b&gt;&lt;/font&gt;" style="outlineConnect=0;fontColor=#232F3E;gradientColor=none;fillColor=#ED7100;strokeColor=default;dashed=0;verticalLabelPosition=bottom;verticalAlign=top;align=center;html=1;fontSize=12;fontStyle=0;aspect=fixed;pointerEvents=1;shape=mxgraph.aws4.ecs_service;fillStyle=auto;" parent="RwlgTqlIwdwXNtscQH5a-26" vertex="1">
          <mxGeometry x="260" y="70" width="70" height="80" as="geometry" />
        </mxCell>
        <mxCell id="RwlgTqlIwdwXNtscQH5a-50" value="" style="edgeStyle=orthogonalEdgeStyle;html=1;endArrow=block;elbow=vertical;startArrow=none;endFill=1;strokeColor=#8C4FFF;rounded=0;strokeWidth=1;curved=1;dashed=1;shadow=0;sketch=1;curveFitting=1;jiggle=2;dashPattern=12 12;" parent="RwlgTqlIwdwXNtscQH5a-26" source="RwlgTqlIwdwXNtscQH5a-38" target="RwlgTqlIwdwXNtscQH5a-40" edge="1">
          <mxGeometry width="100" relative="1" as="geometry">
            <mxPoint x="170" y="120" as="sourcePoint" />
            <mxPoint x="270" y="120" as="targetPoint" />
          </mxGeometry>
        </mxCell>
        <mxCell id="RwlgTqlIwdwXNtscQH5a-58" value="&lt;span style=&quot;font-family: sans-serif; font-size: 16px; text-align: left; text-wrap-mode: wrap;&quot;&gt;&lt;font style=&quot;color: rgb(140, 79, 255);&quot;&gt;Ⅰ&lt;/font&gt;&lt;/span&gt;" style="edgeLabel;html=1;align=center;verticalAlign=middle;resizable=0;points=[];" parent="RwlgTqlIwdwXNtscQH5a-50" vertex="1" connectable="0">
          <mxGeometry x="0.0532" y="4" relative="1" as="geometry">
            <mxPoint x="-1" y="-11" as="offset" />
          </mxGeometry>
        </mxCell>
        <mxCell id="RwlgTqlIwdwXNtscQH5a-51" value="" style="edgeStyle=orthogonalEdgeStyle;html=1;endArrow=block;elbow=vertical;startArrow=none;endFill=1;strokeColor=#8C4FFF;rounded=1;strokeWidth=2;curved=0;shadow=0;sketch=1;curveFitting=1;jiggle=2;fillColor=#d5e8d4;" parent="RwlgTqlIwdwXNtscQH5a-26" source="RwlgTqlIwdwXNtscQH5a-38" target="RwlgTqlIwdwXNtscQH5a-42" edge="1">
          <mxGeometry width="100" relative="1" as="geometry">
            <mxPoint x="160" y="150" as="sourcePoint" />
            <mxPoint x="260" y="150" as="targetPoint" />
            <Array as="points">
              <mxPoint x="170" y="270" />
              <mxPoint x="170" y="110" />
            </Array>
          </mxGeometry>
        </mxCell>
        <mxCell id="RwlgTqlIwdwXNtscQH5a-59" value="&lt;span style=&quot;font-family: sans-serif; font-size: 16px; text-align: left; text-wrap-mode: wrap;&quot;&gt;&lt;font style=&quot;color: rgb(140, 79, 255);&quot;&gt;Ⅱ&lt;/font&gt;&lt;/span&gt;" style="edgeLabel;html=1;align=center;verticalAlign=middle;resizable=0;points=[];fontColor=#B286DF;" parent="RwlgTqlIwdwXNtscQH5a-51" vertex="1" connectable="0">
          <mxGeometry x="0.4288" relative="1" as="geometry">
            <mxPoint x="23" y="-20" as="offset" />
          </mxGeometry>
        </mxCell>
        <mxCell id="RwlgTqlIwdwXNtscQH5a-53" value="" style="edgeStyle=orthogonalEdgeStyle;html=1;endArrow=block;elbow=vertical;startArrow=none;endFill=1;strokeColor=#8C4FFF;rounded=1;strokeWidth=2;curved=0;shadow=0;sketch=1;curveFitting=1;jiggle=2;fillColor=#d5e8d4;gradientColor=#97d077;" parent="RwlgTqlIwdwXNtscQH5a-2" source="RwlgTqlIwdwXNtscQH5a-42" target="RwlgTqlIwdwXNtscQH5a-70" edge="1">
          <mxGeometry width="100" relative="1" as="geometry">
            <mxPoint x="480" y="390" as="sourcePoint" />
            <mxPoint x="520" y="130" as="targetPoint" />
          </mxGeometry>
        </mxCell>
        <mxCell id="RwlgTqlIwdwXNtscQH5a-62" value="&lt;font style=&quot;color: rgb(140, 79, 255);&quot;&gt;&lt;span&gt;Public IP&lt;/span&gt;&lt;/font&gt;" style="edgeLabel;html=1;align=center;verticalAlign=middle;resizable=0;points=[];rotation=270;fontColor=#B286DF;fontStyle=1" parent="RwlgTqlIwdwXNtscQH5a-53" vertex="1" connectable="0">
          <mxGeometry x="0.1337" y="-2" relative="1" as="geometry">
            <mxPoint x="-15" y="27" as="offset" />
          </mxGeometry>
        </mxCell>
        <mxCell id="RwlgTqlIwdwXNtscQH5a-39" value="&lt;font style=&quot;color: rgb(140, 79, 255);&quot;&gt;&lt;b style=&quot;&quot;&gt;Gateway Endpoint&lt;/b&gt;&lt;/font&gt;&lt;div&gt;&lt;br&gt;&lt;/div&gt;" style="sketch=0;outlineConnect=0;fontColor=#232F3E;gradientColor=none;fillColor=#8C4FFF;strokeColor=none;dashed=0;verticalLabelPosition=bottom;verticalAlign=top;align=center;html=1;fontSize=12;fontStyle=0;aspect=fixed;pointerEvents=1;shape=mxgraph.aws4.endpoint;" parent="RwlgTqlIwdwXNtscQH5a-2" vertex="1">
          <mxGeometry x="410" y="190" width="40" height="40" as="geometry" />
        </mxCell>
        <mxCell id="RwlgTqlIwdwXNtscQH5a-70" value="&lt;span&gt;&lt;b style=&quot;&quot;&gt;&lt;font style=&quot;color: rgb(122, 161, 22);&quot;&gt;Static Hosting Bucket&lt;/font&gt;&lt;/b&gt;&lt;/span&gt;" style="sketch=0;outlineConnect=0;fontColor=#232F3E;gradientColor=none;fillColor=#7AA116;strokeColor=none;dashed=0;verticalLabelPosition=bottom;verticalAlign=top;align=center;html=1;fontSize=12;fontStyle=0;aspect=fixed;pointerEvents=1;shape=mxgraph.aws4.bucket;" parent="RwlgTqlIwdwXNtscQH5a-2" vertex="1">
          <mxGeometry x="394" y="52" width="75" height="78" as="geometry" />
        </mxCell>
        <mxCell id="YDn-UxqQ0qau8v8FdMIM-1" value="&lt;font style=&quot;color: rgb(0, 164, 166);&quot;&gt;CloudFront&lt;/font&gt;" style="points=[[0,0,0],[0.25,0,0],[0.5,0,0],[0.75,0,0],[1,0,0],[0,1,0],[0.25,1,0],[0.5,1,0],[0.75,1,0],[1,1,0],[0,0.25,0],[0,0.5,0],[0,0.75,0],[1,0.25,0],[1,0.5,0],[1,0.75,0]];outlineConnect=0;fontColor=#232F3E;fillColor=#00A4A6;strokeColor=#ffffff;dashed=0;verticalLabelPosition=bottom;verticalAlign=top;align=center;html=1;fontSize=12;fontStyle=0;aspect=fixed;shape=mxgraph.aws4.resourceIcon;resIcon=mxgraph.aws4.cloudfront;" parent="RwlgTqlIwdwXNtscQH5a-2" vertex="1">
          <mxGeometry x="308" y="66" width="45" height="45" as="geometry" />
        </mxCell>
        <mxCell id="RwlgTqlIwdwXNtscQH5a-15" value="&lt;b&gt;&lt;font style=&quot;color: rgb(35, 47, 61);&quot;&gt;Internet&lt;/font&gt;&lt;/b&gt;" style="sketch=0;outlineConnect=0;fontColor=#232F3E;gradientColor=none;fillColor=#232F3D;strokeColor=none;dashed=0;verticalLabelPosition=bottom;verticalAlign=top;align=center;html=1;fontSize=12;fontStyle=0;aspect=fixed;pointerEvents=1;shape=mxgraph.aws4.internet_alt1;fillStyle=auto;" parent="1" vertex="1">
          <mxGeometry x="437" y="180" width="90" height="60" as="geometry" />
        </mxCell>
        <mxCell id="RwlgTqlIwdwXNtscQH5a-24" value="&lt;font style=&quot;color: rgb(140, 79, 255);&quot;&gt;&lt;b style=&quot;&quot;&gt;Direct Connect&lt;/b&gt;&lt;/font&gt;" style="points=[[0,0,0],[0.25,0,0],[0.5,0,0],[0.75,0,0],[1,0,0],[0,1,0],[0.25,1,0],[0.5,1,0],[0.75,1,0],[1,1,0],[0,0.25,0],[0,0.5,0],[0,0.75,0],[1,0.25,0],[1,0.5,0],[1,0.75,0]];outlineConnect=0;fontColor=#232F3E;fillColor=#8C4FFF;strokeColor=#ffffff;dashed=0;verticalLabelPosition=bottom;verticalAlign=top;align=center;html=1;fontSize=12;fontStyle=0;aspect=fixed;shape=mxgraph.aws4.resourceIcon;resIcon=mxgraph.aws4.direct_connect;" parent="1" vertex="1">
          <mxGeometry x="437" y="560" width="80" height="80" as="geometry" />
        </mxCell>
        <mxCell id="RwlgTqlIwdwXNtscQH5a-47" value="" style="edgeStyle=orthogonalEdgeStyle;html=1;endArrow=block;elbow=vertical;startArrow=none;endFill=1;strokeColor=#00A4A6;rounded=1;strokeWidth=2;curved=0;shadow=0;sketch=1;curveFitting=1;jiggle=2;fillColor=#dae8fc;" parent="1" source="RwlgTqlIwdwXNtscQH5a-1" target="RwlgTqlIwdwXNtscQH5a-15" edge="1">
          <mxGeometry width="100" relative="1" as="geometry">
            <mxPoint x="490" y="370" as="sourcePoint" />
            <mxPoint x="590" y="370" as="targetPoint" />
            <Array as="points">
              <mxPoint x="400" y="410" />
              <mxPoint x="400" y="210" />
            </Array>
          </mxGeometry>
        </mxCell>
        <mxCell id="RwlgTqlIwdwXNtscQH5a-48" value="" style="edgeStyle=orthogonalEdgeStyle;html=1;endArrow=block;elbow=vertical;startArrow=none;endFill=1;strokeColor=#8C4FFF;rounded=1;strokeWidth=2;curved=0;shadow=0;sketch=1;curveFitting=1;jiggle=2;fillColor=#d5e8d4;gradientColor=#97d077;" parent="1" source="RwlgTqlIwdwXNtscQH5a-1" target="RwlgTqlIwdwXNtscQH5a-24" edge="1">
          <mxGeometry width="100" relative="1" as="geometry">
            <mxPoint x="540" y="410" as="sourcePoint" />
            <mxPoint x="640" y="410" as="targetPoint" />
            <Array as="points">
              <mxPoint x="400" y="410" />
              <mxPoint x="400" y="600" />
            </Array>
          </mxGeometry>
        </mxCell>
        <mxCell id="RwlgTqlIwdwXNtscQH5a-49" value="" style="edgeStyle=orthogonalEdgeStyle;html=1;endArrow=block;elbow=vertical;startArrow=none;endFill=1;strokeColor=#8C4FFF;rounded=0;exitX=1;exitY=0.5;exitDx=0;exitDy=0;exitPerimeter=0;strokeWidth=2;fillColor=#d5e8d4;gradientColor=#97d077;sketch=1;curveFitting=1;jiggle=2;" parent="1" source="RwlgTqlIwdwXNtscQH5a-24" target="RwlgTqlIwdwXNtscQH5a-38" edge="1">
          <mxGeometry width="100" relative="1" as="geometry">
            <mxPoint x="790" y="500" as="sourcePoint" />
            <mxPoint x="750" y="599" as="targetPoint" />
          </mxGeometry>
        </mxCell>
        <mxCell id="RwlgTqlIwdwXNtscQH5a-56" value="&lt;font style=&quot;color: rgb(140, 79, 255);&quot;&gt;&lt;b&gt;Private EIP&lt;/b&gt;&lt;/font&gt;" style="edgeLabel;html=1;align=center;verticalAlign=middle;resizable=0;points=[];" parent="RwlgTqlIwdwXNtscQH5a-49" vertex="1" connectable="0">
          <mxGeometry x="-0.0509" y="-1" relative="1" as="geometry">
            <mxPoint x="5" y="-16" as="offset" />
          </mxGeometry>
        </mxCell>
        <mxCell id="RwlgTqlIwdwXNtscQH5a-55" value="" style="edgeStyle=orthogonalEdgeStyle;html=1;endArrow=block;elbow=vertical;startArrow=none;endFill=1;strokeColor=#00A4A6;rounded=0;strokeWidth=2;jumpStyle=none;shadow=0;sketch=1;curveFitting=1;jiggle=2;flowAnimation=0;fillColor=#dae8fc;" parent="1" source="RwlgTqlIwdwXNtscQH5a-15" target="RwlgTqlIwdwXNtscQH5a-70" edge="1">
          <mxGeometry width="100" relative="1" as="geometry">
            <mxPoint x="790" y="210" as="sourcePoint" />
            <mxPoint x="1032" y="210" as="targetPoint" />
          </mxGeometry>
        </mxCell>
        <mxCell id="RwlgTqlIwdwXNtscQH5a-57" value="&lt;font style=&quot;&quot;&gt;Public IP&lt;/font&gt;" style="edgeLabel;html=1;align=center;verticalAlign=middle;resizable=0;points=[];fontColor=#00A4A6;fontStyle=1" parent="RwlgTqlIwdwXNtscQH5a-55" vertex="1" connectable="0">
          <mxGeometry x="0.0706" y="-2" relative="1" as="geometry">
            <mxPoint x="-107" y="-19" as="offset" />
          </mxGeometry>
        </mxCell>
        <mxCell id="RwlgTqlIwdwXNtscQH5a-60" value="&lt;span style=&quot;font-family: sans-serif; font-size: 16px; text-align: left; text-wrap-mode: wrap; background-color: rgb(248, 249, 250);&quot;&gt;Ⅲ&lt;/span&gt;" style="edgeLabel;html=1;align=center;verticalAlign=middle;resizable=0;points=[];fontColor=#00A4A6;" parent="RwlgTqlIwdwXNtscQH5a-55" vertex="1" connectable="0">
          <mxGeometry x="0.2086" y="-2" relative="1" as="geometry">
            <mxPoint x="-10" y="-20" as="offset" />
          </mxGeometry>
        </mxCell>
      </root>
    </mxGraphModel>
  </diagram>
</mxfile>
